<?xml version="1.0" encoding="UTF-8" standalone="no"?><!DOCTYPE svg PUBLIC "-//W3C//DTD SVG 1.1//EN" "http://www.w3.org/Graphics/SVG/1.1/DTD/svg11.dtd"><svg width="360px" height="120px" version="1.1" xmlns="http://www.w3.org/2000/svg" xmlns:xlink="http://www.w3.org/1999/xlink" xml:space="preserve" xmlns:serif="http://www.serif.com/" style="fill-rule:evenodd;clip-rule:evenodd;stroke-linejoin:round;stroke-miterlimit:2;"><path d="M32,2L358,2L358,118L2,118L2,32C2,15.432 15.432,2 32,2Z" style="fill:none;fill-rule:nonzero;stroke:rgb(102,102,102);stroke-width:1px;"/><path d="M32,2L358,2L358,118L2,118L2,32C2,15.432 15.432,2 32,2Z" style="fill:none;fill-rule:nonzero;stroke:rgb(102,102,102);stroke-width:4px;stroke-linejoin:miter;stroke-miterlimit:4;"/><path d="M148.196,32.094L141.974,32.094C141.861,31.289 141.629,30.574 141.278,29.949C140.928,29.314 140.478,28.775 139.929,28.33C139.38,27.885 138.745,27.544 138.026,27.307C137.315,27.07 136.544,26.952 135.71,26.952C134.205,26.952 132.893,27.326 131.776,28.074C130.658,28.813 129.792,29.892 129.176,31.313C128.561,32.724 128.253,34.438 128.253,36.455C128.253,38.528 128.561,40.271 129.176,41.682C129.801,43.093 130.672,44.158 131.79,44.878C132.907,45.597 134.2,45.957 135.668,45.957C136.491,45.957 137.254,45.849 137.955,45.631C138.665,45.413 139.295,45.096 139.844,44.679C140.393,44.253 140.848,43.737 141.207,43.131C141.577,42.525 141.832,41.833 141.974,41.057L148.196,41.085C148.035,42.42 147.633,43.708 146.989,44.949C146.354,46.18 145.497,47.283 144.418,48.259C143.348,49.224 142.069,49.992 140.582,50.56C139.105,51.118 137.434,51.398 135.568,51.398C132.973,51.398 130.653,50.811 128.608,49.636C126.572,48.462 124.962,46.762 123.778,44.537C122.604,42.312 122.017,39.617 122.017,36.455C122.017,33.282 122.614,30.583 123.807,28.358C125,26.133 126.619,24.438 128.665,23.273C130.71,22.099 133.011,21.511 135.568,21.511C137.254,21.511 138.816,21.748 140.256,22.222C141.705,22.695 142.988,23.386 144.105,24.296C145.223,25.195 146.132,26.298 146.832,27.605C147.543,28.912 147.997,30.408 148.196,32.094Z" style="fill:rgb(102,102,102);fill-rule:nonzero;"/><path d="M152.493,51L152.493,29.182L158.359,29.182L158.359,32.989L158.587,32.989C158.984,31.635 159.652,30.612 160.589,29.921C161.527,29.22 162.607,28.869 163.828,28.869C164.131,28.869 164.458,28.888 164.808,28.926C165.159,28.964 165.466,29.016 165.732,29.082L165.732,34.452C165.447,34.367 165.054,34.291 164.553,34.224C164.051,34.158 163.591,34.125 163.175,34.125C162.285,34.125 161.489,34.319 160.788,34.707C160.097,35.086 159.548,35.617 159.141,36.298C158.743,36.98 158.544,37.766 158.544,38.656L158.544,51L152.493,51Z" style="fill:rgb(102,102,102);fill-rule:nonzero;"/><path d="M174.457,51.412C173.065,51.412 171.824,51.17 170.735,50.688C169.646,50.195 168.784,49.471 168.15,48.514C167.525,47.548 167.212,46.346 167.212,44.906C167.212,43.694 167.435,42.676 167.88,41.852C168.325,41.028 168.931,40.366 169.698,39.864C170.465,39.362 171.336,38.983 172.312,38.727C173.297,38.472 174.329,38.292 175.408,38.188C176.677,38.055 177.7,37.932 178.477,37.818C179.253,37.695 179.817,37.515 180.167,37.278C180.517,37.042 180.692,36.691 180.692,36.227L180.692,36.142C180.692,35.242 180.408,34.546 179.84,34.054C179.281,33.562 178.486,33.315 177.454,33.315C176.365,33.315 175.498,33.557 174.854,34.04C174.21,34.513 173.784,35.11 173.576,35.83L167.979,35.375C168.263,34.049 168.822,32.903 169.656,31.938C170.489,30.962 171.564,30.214 172.88,29.693C174.206,29.163 175.74,28.898 177.482,28.898C178.694,28.898 179.854,29.04 180.962,29.324C182.08,29.608 183.069,30.048 183.931,30.645C184.802,31.241 185.489,32.008 185.991,32.946C186.493,33.874 186.744,34.987 186.744,36.284L186.744,51L181.005,51L181.005,47.974L180.835,47.974C180.484,48.656 180.015,49.258 179.428,49.778C178.841,50.29 178.136,50.692 177.312,50.986C176.488,51.27 175.536,51.412 174.457,51.412ZM176.19,47.236C177.08,47.236 177.866,47.061 178.548,46.71C179.229,46.35 179.764,45.867 180.153,45.261C180.541,44.655 180.735,43.969 180.735,43.202L180.735,40.886C180.546,41.01 180.285,41.123 179.954,41.227C179.632,41.322 179.267,41.412 178.86,41.497C178.453,41.573 178.046,41.644 177.638,41.71C177.231,41.767 176.862,41.819 176.531,41.867C175.82,41.971 175.2,42.136 174.67,42.364C174.139,42.591 173.728,42.899 173.434,43.287C173.14,43.666 172.994,44.139 172.994,44.707C172.994,45.531 173.292,46.161 173.888,46.597C174.495,47.023 175.262,47.236 176.19,47.236Z" style="fill:rgb(102,102,102);fill-rule:nonzero;"/><path d="M203.171,29.182L203.171,33.727L189.705,33.727L189.705,29.182L203.171,29.182ZM192.788,51L192.788,27.605C192.788,26.024 193.095,24.712 193.711,23.671C194.336,22.629 195.188,21.848 196.268,21.327C197.347,20.806 198.574,20.546 199.947,20.546C200.875,20.546 201.722,20.616 202.489,20.759C203.266,20.901 203.844,21.028 204.222,21.142L203.143,25.688C202.906,25.612 202.612,25.541 202.262,25.474C201.921,25.408 201.571,25.375 201.211,25.375C200.321,25.375 199.701,25.583 199.35,26C199,26.407 198.825,26.98 198.825,27.719L198.825,51L192.788,51Z" style="fill:rgb(102,102,102);fill-rule:nonzero;"/><path d="M218.473,29.182L218.473,33.727L205.334,33.727L205.334,29.182L218.473,29.182ZM208.317,23.955L214.368,23.955L214.368,44.295C214.368,44.854 214.453,45.29 214.624,45.602C214.794,45.905 215.031,46.118 215.334,46.242C215.646,46.365 216.006,46.426 216.413,46.426C216.697,46.426 216.982,46.403 217.266,46.355C217.55,46.298 217.768,46.256 217.919,46.227L218.871,50.73C218.568,50.825 218.142,50.934 217.592,51.057C217.043,51.189 216.375,51.27 215.589,51.298C214.131,51.355 212.853,51.161 211.754,50.716C210.665,50.271 209.818,49.58 209.212,48.642C208.606,47.705 208.307,46.521 208.317,45.091L208.317,23.955Z" style="fill:rgb(102,102,102);fill-rule:nonzero;"/><path d="M232.124,51.426C229.879,51.426 227.947,50.972 226.328,50.063C224.718,49.144 223.478,47.847 222.607,46.17C221.735,44.485 221.3,42.492 221.3,40.19C221.3,37.946 221.735,35.976 222.607,34.281C223.478,32.586 224.704,31.265 226.286,30.318C227.876,29.371 229.742,28.898 231.882,28.898C233.321,28.898 234.661,29.13 235.902,29.594C237.152,30.048 238.241,30.735 239.169,31.653C240.107,32.572 240.836,33.727 241.357,35.119C241.877,36.502 242.138,38.121 242.138,39.977L242.138,41.639L223.714,41.639L223.714,37.889L236.442,37.889C236.442,37.018 236.252,36.246 235.874,35.574C235.495,34.902 234.969,34.376 234.297,33.997C233.634,33.609 232.862,33.415 231.982,33.415C231.063,33.415 230.249,33.628 229.538,34.054C228.838,34.471 228.288,35.034 227.891,35.744C227.493,36.445 227.289,37.226 227.28,38.088L227.28,41.653C227.28,42.733 227.479,43.666 227.876,44.452C228.284,45.238 228.857,45.844 229.595,46.27C230.334,46.696 231.21,46.909 232.223,46.909C232.895,46.909 233.511,46.814 234.07,46.625C234.628,46.436 235.107,46.152 235.504,45.773C235.902,45.394 236.205,44.93 236.413,44.381L242.01,44.75C241.726,46.095 241.143,47.269 240.263,48.273C239.392,49.267 238.265,50.044 236.882,50.602C235.509,51.152 233.923,51.426 232.124,51.426Z" style="fill:rgb(102,102,102);fill-rule:nonzero;"/><path d="M254.126,51.355C252.469,51.355 250.968,50.929 249.624,50.077C248.288,49.215 247.228,47.951 246.442,46.284C245.665,44.608 245.277,42.553 245.277,40.119C245.277,37.619 245.679,35.541 246.484,33.884C247.289,32.217 248.359,30.972 249.695,30.148C251.039,29.314 252.512,28.898 254.112,28.898C255.334,28.898 256.352,29.106 257.166,29.523C257.99,29.93 258.653,30.441 259.155,31.057C259.666,31.663 260.054,32.26 260.32,32.847L260.504,32.847L260.504,21.909L266.541,21.909L266.541,51L260.575,51L260.575,47.506L260.32,47.506C260.036,48.112 259.633,48.713 259.112,49.31C258.601,49.897 257.933,50.385 257.109,50.773C256.295,51.161 255.301,51.355 254.126,51.355ZM256.044,46.54C257.019,46.54 257.843,46.275 258.516,45.744C259.197,45.205 259.718,44.452 260.078,43.486C260.447,42.52 260.632,41.388 260.632,40.091C260.632,38.794 260.452,37.667 260.092,36.71C259.732,35.754 259.212,35.015 258.53,34.494C257.848,33.974 257.019,33.713 256.044,33.713C255.05,33.713 254.212,33.983 253.53,34.523C252.848,35.063 252.332,35.811 251.982,36.767C251.631,37.724 251.456,38.831 251.456,40.091C251.456,41.36 251.631,42.482 251.982,43.457C252.341,44.423 252.857,45.181 253.53,45.73C254.212,46.27 255.05,46.54 256.044,46.54Z" style="fill:rgb(102,102,102);fill-rule:nonzero;"/><path d="M122.528,99L122.528,69.909L128.58,69.909L128.58,80.847L128.764,80.847C129.029,80.26 129.413,79.663 129.915,79.057C130.426,78.441 131.089,77.93 131.903,77.523C132.727,77.106 133.75,76.898 134.972,76.898C136.562,76.898 138.03,77.314 139.375,78.148C140.72,78.972 141.795,80.217 142.599,81.884C143.404,83.541 143.807,85.619 143.807,88.119C143.807,90.553 143.414,92.608 142.628,94.284C141.851,95.951 140.791,97.215 139.446,98.077C138.111,98.929 136.615,99.355 134.957,99.355C133.783,99.355 132.784,99.161 131.96,98.773C131.146,98.385 130.478,97.897 129.957,97.31C129.437,96.713 129.039,96.112 128.764,95.506L128.494,95.506L128.494,99L122.528,99ZM128.452,88.091C128.452,89.388 128.632,90.52 128.991,91.486C129.351,92.452 129.872,93.205 130.554,93.744C131.236,94.275 132.064,94.54 133.04,94.54C134.025,94.54 134.858,94.27 135.54,93.73C136.222,93.181 136.738,92.423 137.088,91.457C137.448,90.482 137.628,89.36 137.628,88.091C137.628,86.831 137.453,85.724 137.102,84.767C136.752,83.811 136.236,83.063 135.554,82.523C134.872,81.983 134.034,81.713 133.04,81.713C132.055,81.713 131.222,81.974 130.54,82.494C129.867,83.015 129.351,83.754 128.991,84.71C128.632,85.667 128.452,86.794 128.452,88.091Z" style="fill:rgb(102,102,102);fill-rule:nonzero;"/><path d="M150.877,107.182C150.11,107.182 149.39,107.12 148.718,106.997C148.055,106.884 147.506,106.737 147.07,106.557L148.434,102.04C149.144,102.258 149.783,102.376 150.352,102.395C150.929,102.414 151.426,102.281 151.843,101.997C152.269,101.713 152.615,101.23 152.88,100.548L153.235,99.625L145.408,77.182L151.772,77.182L156.289,93.205L156.516,93.205L161.076,77.182L167.482,77.182L159.002,101.358C158.595,102.532 158.041,103.555 157.34,104.426C156.649,105.307 155.773,105.984 154.712,106.457C153.652,106.94 152.373,107.182 150.877,107.182Z" style="fill:rgb(102,102,102);fill-rule:nonzero;"/><path d="M179.95,99L179.95,69.909L186.101,69.909L186.101,81.912L198.587,81.912L198.587,69.909L204.723,69.909L204.723,99L198.587,99L198.587,86.983L186.101,86.983L186.101,99L179.95,99Z" style="fill:rgb(102,102,102);fill-rule:nonzero;"/><path d="M223.672,89.71L223.672,77.182L229.723,77.182L229.723,99L223.913,99L223.913,95.037L223.686,95.037C223.194,96.315 222.375,97.343 221.229,98.119C220.092,98.896 218.705,99.284 217.067,99.284C215.608,99.284 214.325,98.953 213.217,98.29C212.109,97.627 211.243,96.685 210.618,95.463C210.002,94.242 209.69,92.778 209.68,91.074L209.68,77.182L215.732,77.182L215.732,89.994C215.741,91.282 216.087,92.3 216.768,93.048C217.45,93.796 218.364,94.171 219.51,94.171C220.239,94.171 220.921,94.005 221.555,93.673C222.19,93.332 222.701,92.831 223.089,92.168C223.487,91.505 223.681,90.686 223.672,89.71Z" style="fill:rgb(102,102,102);fill-rule:nonzero;"/><path d="M234.563,99L234.563,77.182L240.33,77.182L240.33,81.031L240.586,81.031C241.04,79.753 241.798,78.744 242.859,78.006C243.919,77.267 245.188,76.898 246.665,76.898C248.162,76.898 249.435,77.272 250.487,78.02C251.538,78.759 252.238,79.762 252.589,81.031L252.816,81.031C253.261,79.781 254.066,78.782 255.231,78.034C256.405,77.277 257.792,76.898 259.393,76.898C261.429,76.898 263.081,77.546 264.35,78.844C265.629,80.132 266.268,81.959 266.268,84.327L266.268,99L260.231,99L260.231,85.52C260.231,84.308 259.909,83.399 259.265,82.793C258.621,82.187 257.816,81.884 256.85,81.884C255.752,81.884 254.895,82.234 254.279,82.935C253.664,83.626 253.356,84.54 253.356,85.676L253.356,99L247.489,99L247.489,85.392C247.489,84.322 247.182,83.47 246.566,82.835C245.96,82.201 245.16,81.884 244.165,81.884C243.493,81.884 242.887,82.054 242.347,82.395C241.817,82.726 241.396,83.195 241.083,83.801C240.771,84.398 240.614,85.099 240.614,85.903L240.614,99L234.563,99Z" style="fill:rgb(102,102,102);fill-rule:nonzero;"/><path d="M277.269,99.412C275.877,99.412 274.637,99.171 273.548,98.688C272.459,98.195 271.597,97.471 270.962,96.514C270.337,95.548 270.025,94.346 270.025,92.906C270.025,91.694 270.247,90.676 270.692,89.852C271.138,89.028 271.744,88.366 272.511,87.864C273.278,87.362 274.149,86.983 275.124,86.727C276.109,86.472 277.141,86.292 278.221,86.188C279.49,86.055 280.513,85.932 281.289,85.818C282.066,85.695 282.629,85.515 282.979,85.278C283.33,85.042 283.505,84.691 283.505,84.227L283.505,84.142C283.505,83.242 283.221,82.546 282.653,82.054C282.094,81.562 281.299,81.315 280.266,81.315C279.177,81.315 278.311,81.557 277.667,82.04C277.023,82.513 276.597,83.11 276.388,83.83L270.792,83.375C271.076,82.049 271.635,80.903 272.468,79.938C273.301,78.962 274.376,78.214 275.692,77.693C277.018,77.163 278.552,76.898 280.295,76.898C281.507,76.898 282.667,77.04 283.775,77.324C284.892,77.608 285.882,78.048 286.744,78.645C287.615,79.242 288.301,80.009 288.803,80.946C289.305,81.874 289.556,82.987 289.556,84.284L289.556,99L283.817,99L283.817,95.974L283.647,95.974C283.297,96.656 282.828,97.258 282.241,97.778C281.654,98.29 280.948,98.692 280.124,98.986C279.3,99.27 278.349,99.412 277.269,99.412ZM279.002,95.236C279.892,95.236 280.678,95.061 281.36,94.71C282.042,94.35 282.577,93.867 282.965,93.261C283.353,92.655 283.548,91.969 283.548,91.202L283.548,88.886C283.358,89.01 283.098,89.123 282.766,89.227C282.444,89.322 282.08,89.412 281.673,89.497C281.265,89.573 280.858,89.644 280.451,89.71C280.044,89.767 279.674,89.819 279.343,89.867C278.633,89.971 278.013,90.136 277.482,90.364C276.952,90.591 276.54,90.899 276.246,91.287C275.953,91.666 275.806,92.139 275.806,92.707C275.806,93.531 276.104,94.161 276.701,94.597C277.307,95.023 278.074,95.236 279.002,95.236Z" style="fill:rgb(102,102,102);fill-rule:nonzero;"/><path d="M300.302,86.386L300.302,99L294.251,99L294.251,77.182L300.018,77.182L300.018,81.031L300.273,81.031C300.756,79.762 301.566,78.759 302.702,78.02C303.839,77.272 305.217,76.898 306.836,76.898C308.351,76.898 309.672,77.229 310.799,77.892C311.926,78.555 312.802,79.502 313.427,80.733C314.052,81.955 314.364,83.413 314.364,85.108L314.364,99L308.313,99L308.313,86.188C308.323,84.852 307.982,83.811 307.29,83.063C306.599,82.305 305.647,81.926 304.435,81.926C303.621,81.926 302.901,82.101 302.276,82.452C301.661,82.802 301.178,83.313 300.827,83.986C300.486,84.649 300.311,85.449 300.302,86.386Z" style="fill:rgb(102,102,102);fill-rule:nonzero;"/><path d="M71.625,31.25C65.347,31.25 59.775,33.728 56,37.988C52.225,33.728 46.653,31.25 40.375,31.25C34.907,31.257 29.665,33.432 25.798,37.298C21.932,41.165 19.757,46.407 19.75,51.875C19.75,74.481 52.816,92.544 54.222,93.303C54.768,93.597 55.379,93.751 56,93.751C56.621,93.751 57.232,93.597 57.778,93.303C59.184,92.544 92.25,74.481 92.25,51.875C92.243,46.407 90.068,41.165 86.202,37.298C82.335,33.432 77.093,31.257 71.625,31.25ZM69.909,75.738C65.557,79.431 60.905,82.755 56,85.675C51.096,82.755 46.443,79.431 42.091,75.738C35.319,69.928 27.25,61.069 27.25,51.875C27.25,48.394 28.633,45.056 31.094,42.594C33.556,40.133 36.894,38.75 40.375,38.75C45.938,38.75 50.594,41.688 52.528,46.419C52.81,47.109 53.29,47.699 53.909,48.114C54.527,48.53 55.255,48.752 56,48.752C56.745,48.752 57.473,48.53 58.091,48.114C58.71,47.699 59.19,47.109 59.472,46.419C61.406,41.688 66.063,38.75 71.625,38.75C75.106,38.75 78.444,40.133 80.906,42.594C83.367,45.056 84.75,48.394 84.75,51.875C84.75,61.069 76.681,69.928 69.909,75.738Z" style="fill:rgb(102,102,102);fill-rule:nonzero;"/></svg>