<svg xmlns="http://www.w3.org/2000/svg" fill="none" viewBox="0 0 18 18">
	<path d="M10.1627 2.09582L10.879 2.28216C11.1384 2.34778 11.3244 2.50366 11.429 2.74673C11.5135 2.94348 11.5838 3.14568 11.658 3.34649C11.6673 3.37137 11.6632 3.40234 11.6609 3.43014C11.6431 3.64136 11.6144 3.85245 11.6088 4.06417C11.5974 4.44663 11.6007 4.82958 11.5956 5.21216C11.595 5.25811 11.5961 5.3047 11.5977 5.35141L11.6008 5.44508C11.6044 5.56986 11.6032 5.69362 11.5688 5.80684C11.4792 6.10298 11.5617 6.39581 11.5219 6.63318C11.5219 7.00687 11.521 7.32751 11.5224 7.64801C11.5229 7.74093 11.5041 7.83905 11.5758 7.91965C11.5829 7.92777 11.581 7.94834 11.5772 7.96103C11.5106 8.19205 11.5257 8.41812 11.5702 8.65472C11.6068 8.84715 11.5753 9.05228 11.5796 9.25169C11.581 9.32963 11.5918 9.40845 11.6092 9.48449C11.6341 9.59289 11.766 9.66333 11.905 9.65432C12.0781 9.64417 12.2517 9.62525 12.424 9.63046C12.5606 9.63427 12.6994 9.65762 12.8318 9.69329C12.9937 9.73607 13.0641 9.84066 13.0674 10.0233C13.0697 10.1425 12.9961 10.202 12.8882 10.2556C12.5521 10.4207 12.2231 10.6006 11.894 10.7803C11.7341 10.8681 11.605 10.9916 11.5421 11.1703C11.5332 11.1957 11.5229 11.2223 11.5229 11.2482C11.5121 12.0484 11.497 12.8486 11.4956 13.6484C11.4947 14.228 11.5214 14.8077 11.5168 15.3874C11.5153 15.5896 11.5885 15.745 11.7002 15.897C11.7463 15.9599 11.7997 16.0223 11.8251 16.0937C11.8759 16.2358 11.8946 16.379 11.7782 16.51C11.5459 16.7719 11.2806 16.9713 10.9169 16.9981C10.6241 17.0191 10.4247 16.8676 10.3144 16.6198C10.151 16.2527 9.99944 15.8782 9.87733 15.4962C9.8084 15.2804 9.8112 15.0423 9.77642 14.8157C9.74215 14.5894 9.70089 14.3642 9.66434 14.1384C9.64365 14.0112 9.61737 13.884 9.61026 13.7559C9.57421 13.1153 9.54603 12.4741 9.50846 11.8335C9.49488 11.5918 9.45401 11.3515 9.44322 11.1094C9.4356 10.9479 9.46759 10.785 9.4667 10.6226C9.45972 9.51787 9.4502 8.41304 9.43903 7.30821C9.43661 7.10588 9.41313 6.90368 9.41364 6.70134C9.41364 6.29681 9.42633 5.89278 9.42824 5.48862C9.42862 5.26712 9.41085 5.04562 9.41313 4.82451C9.41834 4.31766 9.42303 3.8112 9.44322 3.30524C9.4521 3.09072 9.49069 2.8762 9.53474 2.6655C9.55073 2.58807 9.61978 2.52105 9.66751 2.45149C9.72209 2.37279 9.78111 2.29764 9.83506 2.21869C9.9163 2.1009 10.0257 2.06053 10.1627 2.09582Z" />
	<path d="M14.9035 2.43904C15.0396 2.55354 15.1409 2.66473 15.1579 2.86376C15.1908 3.24444 15.2672 3.62079 15.3166 4.00007C15.3531 4.27831 15.3705 4.55947 15.4062 4.83783C15.4451 5.14704 15.4976 5.45498 15.54 5.76381C15.5568 5.88668 15.5619 6.0107 15.5732 6.13407C15.6019 6.44151 15.608 6.75313 15.6638 7.05587C15.762 7.58391 15.8121 8.11322 15.8318 8.64964C15.8478 9.09695 15.9177 9.54236 15.9473 9.98968C15.9609 10.199 15.9238 10.4111 15.9308 10.6214C15.9445 11.026 15.9558 11.4319 16.0017 11.8336C16.0332 12.1078 16.004 12.3748 15.9984 12.6456C15.9877 13.176 16.0031 13.7063 15.9915 14.2366C15.9871 14.4417 15.9426 14.6464 15.9074 14.8501C15.8985 14.8998 15.8577 14.9458 15.8257 14.9895C15.6967 15.1664 15.7529 15.3728 15.7352 15.5667C15.7084 15.8563 15.7164 16.1501 15.6779 16.4378C15.6544 16.6138 15.5339 16.6579 15.385 16.565C15.0968 16.3843 14.8833 16.1512 14.8373 15.7877C14.8035 15.5179 14.7335 15.2522 14.6791 14.9843C14.6782 14.9801 14.6753 14.9759 14.6749 14.9712C14.6439 14.6267 14.613 14.2817 14.5825 13.9367C14.5881 13.9358 14.5938 13.9354 14.5994 13.9349C14.5684 13.6721 14.5364 13.4096 14.5074 13.1469L14.5048 13.1012L14.5054 13.0098C14.5054 12.9946 14.5046 12.9794 14.5032 12.9642C14.4778 12.6963 14.4487 12.4287 14.4224 12.1607C14.4014 11.9495 14.3859 11.7374 14.3628 11.5262C14.33 11.2245 14.2904 10.9231 14.2568 10.6209C14.225 10.3369 14.1952 10.0526 14.1672 9.76818C14.1465 9.56204 14.1305 9.35514 14.1098 9.14912C14.0743 8.79142 14.0362 8.43424 14 8.07717C13.9704 7.78332 13.9433 7.48909 13.9132 7.19524C13.8921 6.9943 13.8681 6.79349 13.8451 6.59256C13.841 6.556 13.8321 6.52033 13.8291 6.48378C13.7996 6.07822 13.7771 5.67267 13.739 5.26813C13.7171 5.02734 13.6696 4.78947 13.6372 4.54918C13.5875 4.17511 13.5297 3.80104 13.4963 3.42506C13.4753 3.18808 13.4721 2.945 13.4978 2.7089C13.5297 2.42203 13.7246 2.2527 14.024 2.23011C14.3361 2.20625 14.6434 2.21932 14.9035 2.43904Z" />
	<path d="M3.59454 1.00648C3.79027 1.03047 4.08539 1.24384 4.13895 1.46128C4.17703 1.61474 4.1943 1.77379 4.22628 1.92915C4.24964 2.04187 4.3046 2.14088 4.47634 2.12907C4.73123 2.1108 4.9842 2.06205 5.23909 2.03387C5.68069 1.98501 6.12749 1.92446 6.54422 2.13986C6.79808 2.27137 6.98544 2.47459 7.09803 2.74407C7.16187 2.89601 7.24121 3.04198 7.31204 3.19163C7.31965 3.20712 7.31826 3.2273 7.32054 3.24571C7.35291 3.50097 7.39467 3.75585 7.41447 4.01213C7.42754 4.18286 7.40825 4.35663 7.40647 4.52875C7.40546 4.6044 7.42006 4.68132 7.41257 4.75647C7.39657 4.91932 7.37068 5.08167 7.34821 5.24402C7.32105 5.44026 7.29008 5.63599 7.26659 5.83299C7.2506 5.96589 7.25669 6.10247 7.23321 6.23435C7.19716 6.43567 7.1403 6.63331 7.09904 6.83424C7.08026 6.92386 7.08774 7.02007 7.06528 7.10829C6.998 7.36977 6.9193 7.62834 6.84835 7.8888C6.78691 8.115 6.74045 8.3464 6.66861 8.5698C6.60197 8.7767 6.50817 8.97472 6.43074 9.17908C6.39316 9.27758 6.36727 9.38027 6.33541 9.48169C6.21292 9.87315 6.07113 10.2556 5.82336 10.5893C5.69516 10.7625 5.56987 10.938 5.44421 11.1127C5.4305 11.1309 5.40803 11.1525 5.40994 11.1703C5.4319 11.3606 5.32616 11.4758 5.21002 11.5937L5.17498 11.6293C5.16908 11.6352 5.1632 11.6412 5.15734 11.6472C5.02876 11.7799 4.93216 11.9429 4.81754 12.0893C4.76359 12.1578 4.71193 12.2455 4.63882 12.2775C4.4163 12.3746 4.38914 12.5615 4.36426 12.7656C4.27693 13.477 4.30511 14.1919 4.31641 14.9048C4.32148 15.2376 4.4097 15.568 4.43788 15.9012L4.44283 15.9543L4.44816 16.0076C4.46835 16.2122 4.48117 16.4191 4.30321 16.5935C4.20001 16.6948 4.0911 16.6911 3.97661 16.6659C3.76158 16.6179 3.60203 16.4794 3.49934 16.2936C3.34435 16.011 3.1914 15.7248 3.07221 15.4262C2.94172 15.0972 2.83509 14.7565 2.74599 14.4139C2.67414 14.1398 2.63238 13.8558 2.59722 13.5738C2.54518 13.1579 2.51091 12.7393 2.47041 12.34C2.45455 11.7528 2.42916 11.1844 2.42776 10.6161C2.42586 10.0651 2.44934 9.51406 2.46064 8.96304C2.46864 8.58097 2.46572 8.1989 2.48311 7.81747C2.49402 7.56944 2.47549 7.32408 2.45264 7.0791L2.43272 6.86915C2.42244 6.76422 2.41373 6.65916 2.40657 6.55397C2.3775 6.09917 2.34894 5.63878 2.46762 5.18398C2.50989 5.02151 2.4991 4.8358 2.47041 4.66774C2.45493 4.57902 2.36303 4.4828 2.2804 4.42974C1.95468 4.22144 1.90442 3.86337 2.17339 3.5869C2.43335 3.31882 2.56765 3.01101 2.59671 2.64214C2.6202 2.33521 2.66145 2.02905 2.70753 1.72454C2.76947 1.31962 3.09087 0.945928 3.59454 1.00648ZM5.21141 3.28899C4.94321 3.29292 4.6814 3.37142 4.45527 3.5157C4.35487 3.57954 4.24266 3.67995 4.21219 3.78556C4.16383 3.9507 4.16244 4.13564 4.17361 4.3103C4.1943 4.64299 4.23987 4.97391 4.27135 5.30571C4.29051 5.50182 4.29673 5.69946 4.3206 5.89519C4.35868 6.20211 4.40742 6.50815 4.45007 6.81419C4.48383 7.05396 4.51722 7.29374 4.54819 7.53365C4.58297 7.80109 4.62942 8.06867 4.64339 8.33764C4.65291 8.51662 4.65291 8.69623 4.651 8.87571L4.64808 9.14494C4.64758 9.18987 4.64732 9.23468 4.6472 9.27949C4.64681 9.32138 4.6444 9.36352 4.64021 9.4049C4.61483 9.64049 4.57929 9.87557 4.56786 10.1117C4.56367 10.2008 4.61622 10.2923 4.64301 10.3824C4.66268 10.3843 4.68236 10.3862 4.70216 10.3885C4.83683 10.2267 5.0002 10.0812 5.10009 9.90095C5.33949 9.46773 5.57279 9.02791 5.76383 8.57183C5.91729 8.20373 6.0144 7.81099 6.1195 7.42474C6.21241 7.08113 6.29974 6.73422 6.35648 6.38325C6.40294 6.09651 6.40916 5.80189 6.41703 5.50995C6.42274 5.29213 6.39685 5.0738 6.39596 4.85611C6.39507 4.41819 6.34201 3.99385 6.10452 3.61369C6.021 3.47952 5.9192 3.34903 5.75393 3.32276C5.57559 3.29508 5.39217 3.2862 5.21141 3.28899Z" />
	<style>
		path { fill: #000; }
		@media (prefers-color-scheme: dark) {
			path { fill: #FFF; }
		}
	</style>
</svg>