<svg width="400" height="127" xmlns="http://www.w3.org/2000/svg"><path d="M74.866 60.277c-.066 1.852-.942 3.398-1.944 4.906-.415.618-.574 1.398-.87 2.093-.37.88-.761 1.745-1.142 2.622-.066.155-.148.31-.177.477a434.164 434.164 0 00-.888 5.339c-.24 1.542-.262 3.146-.71 4.622-.769 2.547-.233 5.143-.591 7.705-.647 4.617-.622 9.252-.525 13.889l.071 3.21c.046 2.142.077 4.282.036 6.42-.03 1.602.665 3.218 1.035 4.83.037.173.119.336.152.514.251 1.275.44 2.573.769 3.834.296 1.139.702 2.255 1.139 3.35.38.954.273 1.86-.433 2.5-.384.347-1.264.58-1.682.376-.873-.425-1.73-1.064-2.344-1.819-1.014-1.253-1.949-2.603-2.7-4.023-.455-.857-.812-1.77-1.15-2.69l-.402-1.107a58.529 58.529 0 00-.204-.55l-.403-1.089-.787-2.184a62.934 62.934 0 00-.829-2.167c-.3-.743-.854-.954-1.608-.336-1.516 1.242-3.043 2.473-4.644 3.594-2.551 1.778-5.42 1.915-8.405 1.486-2.621-.377-4.94-1.427-6.614-3.416-1.124-1.331-1.908-2.999-2.614-4.615-1.498-3.431-1.583-7.103-1.324-10.748.2-2.814.632-5.62 1.12-8.405a52.142 52.142 0 011.531-6.4l.333-1.083c.858-2.766 1.827-5.486 4.126-7.547.684-.617 1.024-1.627 1.483-2.48.266-.5.34-1.143.695-1.546 1.246-1.424 1.25-3.31 1.96-4.925.377-.858.887-.958 1.649-.633.813.348.695.877.37 1.513-.326.628-.296 1.157.155 1.848.717 1.091.883 2.404.64 3.738-.16.873-.322 1.764-.34 2.648-.045 2.325.036 4.659-.041 6.98-.034.855-.396 1.69-.577 2.54-.067.322-.022.663-.067.988-.207 1.583-.432 3.165-.647 4.748l-.016.22.001.445c-.074 3.272-.148 6.548-.225 9.82-.004.097-.045.197-.085.356-.104-.17-.17-.278-.352-.581.052.658.078 1.117.126 1.571.174 1.598.244 3.217.588 4.778.16.728.717 1.578 1.339 1.93.443.247 1.4-.1 1.963-.451 1.797-1.117 2.714-2.958 3.505-4.822 1.143-2.68 2.278-5.369 3.228-8.12.902-2.606 1.63-5.276 2.307-7.953.562-2.226.973-4.5 1.383-6.763.274-1.523.377-3.08.643-4.603.304-1.723.729-3.424 1.043-5.147.16-.858.115-1.752.289-2.603l.16-.8.16-.801c.434-2.137.954-4.254 2.268-6.038.665-.902 1.856-1.512 2.924-1.993.932-.417 2.027-.491 3.055-.673 2.14-.384 3.157 1.41 3.094 3.22zm18.517-36.479c.643 1.794-.118 3.487-.152 5.221-.037 1.697-.34 3.387-.57 5.077-.132.994-.373 1.978-.531 2.973-.078.502-.052 1.02-.13 1.523-.185 1.165-.403 2.322-.606 3.483-.019.107-.041.218-.048.325-.226 3.76-.466 7.514-.651 11.274-.026.592.23 1.194.307 1.797.07.503.14 1.024.089 1.527-.093.995-.293 1.978-.407 2.969-.226 1.864-.533 3.73-.592 5.602-.07 2.155.037 4.318.174 6.474.052.758.57 1.065 1.472.98 1.534-.14 3.15-.303 4.625.022 2.16.473 4.285 1.235 6.304 2.14 1.261.567 2.433 1.495 3.402 2.497 1.006 1.042 1.712 2.37 2.562 3.564.389.55.806 1.08 1.306 1.745 1.29-3.346 1.66-6.53 1.804-9.761.122-2.636.303-5.269.444-7.905.229-4.264.428-8.527.661-12.786.126-2.274.296-4.54.437-6.815.085-1.345.17-2.695.222-4.045.088-2.277.362-4.57.159-6.821-.174-1.971.31-3.805.565-5.68.207-1.564 1.11-2.932 2.141-4.134.577-.669 1.904-.754 2.603-.059a46.08 46.08 0 013.609 4.03c1.231 1.55.68 3.398.577 5.136-.093 1.535-.451 3.058-.548 4.596-.203 3.254-.31 6.515-.462 9.773-.144 3.183-.21 6.374-.466 9.55-.233 2.87-.713 5.72-1.005 8.59-.13 1.275.051 2.588-.1 3.86-.259 2.11-.673 4.204-1.013 6.308-.107.64-.23 1.279-.289 1.926-.303 3.335-.588 6.674-.88 10.009-.151 1.775-.244 3.56-.47 5.328-.332 2.618-.776 5.225-1.142 7.839-.17 1.223-.21 2.462-.41 3.679-.289 1.774-.703 3.53-.999 5.305-.266 1.609-.45 3.228-.65 4.848-.27 2.196-.51 4.396-.777 6.592-.107.862-.14 1.757-.406 2.567-.444 1.36-1.675 1.6-2.419.38-.735-1.209-1.338-2.617-1.553-4.008-.244-1.615-.367-3.25-.473-4.886l-.126-1.964a108.01 108.01 0 00-.07-.981c-.033-.447.015-.902-.048-1.342-.155-1.028-.355-2.049-.558-3.202-.436.458-.721.754-1.002 1.05-.888.94-1.834 1.834-2.655 2.832-1.32 1.609-3.135 2-5.043 2.422-2.348.518-4.63 1.335-6.948 1.99-1.283.365-2.584.672-3.853.998-.107 1.135-.14 2.23-.35 3.294-.09.447-.578 1.157-.859 1.146-.602-.022-1.416-.273-1.741-.724-.891-1.24-1.483-2.618-1.646-4.227-.065-.645-.235-1.28-.426-1.912l-.294-.949c-.146-.475-.28-.952-.37-1.435-.37-2.008-.614-4.038-.843-6.068-.26-2.27-.448-4.548-.644-6.829-.055-.64-.03-1.287-.03-1.934-.003-4.355-.029-8.715.008-13.074.026-3.05.022-6.112.244-9.147.207-2.759.721-5.495 1.05-8.242.144-1.198.119-2.415.259-3.609.288-2.488.643-4.966.95-7.454l.079-.708.13-1.422c.044-.474.097-.947.172-1.416.314-1.934.747-3.849 1.065-5.786.159-.965.1-1.971.266-2.936.31-1.76.74-3.498 1.061-5.258.152-.82.122-1.671.256-2.496.421-2.65.739-5.332 1.379-7.935.506-2.078.68-4.355 2.458-5.952 1.184-1.058 1.886-.818 2.415.661zM198.349 8.632l5.643 1.468c2.044.517 3.509 1.745 4.333 3.66.666 1.55 1.22 3.143 1.804 4.725.074.196.041.44.023.659-.14 1.664-.366 3.327-.41 4.995-.09 3.013-.064 6.03-.104 9.044-.005.362.004.729.016 1.097l.025.738c.028.983.019 1.958-.252 2.85-.706 2.333-.056 4.64-.37 6.51 0 2.944-.007 5.47.004 7.995.004.732-.144 1.505.421 2.14.056.064.041.226.011.326-.525 1.82-.406 3.601-.055 5.465.288 1.516.04 3.132.074 4.703.011.614.096 1.235.233 1.834.196.854 1.235 1.409 2.33 1.338 1.364-.08 2.732-.229 4.089-.188 1.076.03 2.17.214 3.213.495 1.275.337 1.83 1.161 1.856 2.6.018.939-.562 1.408-1.412 1.83-2.648 1.301-5.24 2.718-7.832 4.134-1.26.691-2.277 1.664-2.773 3.072-.07.2-.151.41-.151.614-.085 6.304-.204 12.608-.215 18.909-.007 4.566.203 9.133.167 13.7-.012 1.593.565 2.817 1.445 4.015.363.495.784.987.984 1.549.4 1.12.547 2.248-.37 3.28-1.83 2.063-3.92 3.634-6.785 3.845-2.307.166-3.878-1.028-4.747-2.98-1.287-2.892-2.481-5.842-3.443-8.852-.543-1.7-.521-3.576-.795-5.361-.27-1.783-.595-3.557-.883-5.336-.163-1.002-.37-2.004-.426-3.013-.284-5.047-.506-10.098-.802-15.145-.107-1.904-.429-3.797-.514-5.705-.06-1.272.192-2.555.185-3.835-.055-8.703-.13-17.407-.218-26.111-.019-1.594-.204-3.187-.2-4.781 0-3.187.1-6.37.115-9.554.003-1.745-.137-3.49-.119-5.232.041-3.993.078-7.983.237-11.969.07-1.69.374-3.38.721-5.04.126-.61.67-1.138 1.046-1.686.43-.62.895-1.212 1.32-1.834.64-.928 1.502-1.246 2.581-.968zM12.562.05c1.542.189 3.867 1.87 4.289 3.583.3 1.209.436 2.462.688 3.686.184.888.617 1.668 1.97 1.575 2.008-.144 4.001-.528 6.009-.75 3.479-.385 6.999-.862 10.282.835 2 1.036 3.476 2.637 4.363 4.76.503 1.197 1.128 2.347 1.686 3.526.06.122.049.281.067.426.255 2.011.584 4.019.74 6.038.103 1.345-.049 2.714-.063 4.07-.008.596.107 1.202.048 1.794-.126 1.283-.33 2.562-.507 3.841-.214 1.546-.458 3.088-.643 4.64-.126 1.047-.078 2.123-.263 3.162-.284 1.586-.732 3.143-1.057 4.726-.148.706-.089 1.464-.266 2.159-.53 2.06-1.15 4.097-1.709 6.149-.484 1.782-.85 3.605-1.416 5.365-.525 1.63-1.264 3.19-1.874 4.8-.296.776-.5 1.585-.751 2.384-.965 3.084-2.082 6.097-4.034 8.726-1.01 1.364-1.997 2.747-2.987 4.123-.108.144-.285.314-.27.454.173 1.499-.66 2.407-1.575 3.336l-.276.28a28.77 28.77 0 00-.139.141c-1.013 1.046-1.774 2.33-2.677 3.483-.425.54-.832 1.231-1.408 1.483-1.753.765-1.967 2.237-2.163 3.845-.688 5.605-.466 11.237-.377 16.853.04 2.622.735 5.225.957 7.85l.039.418.042.42c.159 1.612.26 3.242-1.142 4.616-.813.798-1.671.769-2.573.57-1.694-.378-2.951-1.469-3.76-2.933-1.221-2.226-2.426-4.481-3.365-6.833-1.028-2.592-1.868-5.276-2.57-7.975-.566-2.16-.895-4.397-1.172-6.619-.41-3.276-.68-6.574-.999-9.72-.125-4.626-.325-9.104-.336-13.581-.015-4.341.17-8.682.259-13.023.063-3.01.04-6.02.177-9.025.086-1.954-.06-3.887-.24-5.817l-.157-1.654a84.149 84.149 0 01-.206-2.483c-.229-3.583-.454-7.21.481-10.793.333-1.28.248-2.743.022-4.067-.122-.699-.846-1.457-1.497-1.875-2.566-1.641-2.962-4.462-.843-6.64 2.048-2.112 3.106-4.537 3.335-7.443.185-2.418.51-4.83.873-7.229.488-3.19 3.02-6.134 6.988-5.657zm223.136 11.286c1.072.902 1.87 1.778 2.004 3.346.259 2.999.861 5.964 1.25 8.952.288 2.192.425 4.407.706 6.6.307 2.436.72 4.862 1.054 7.295.133.968.173 1.945.262 2.917.226 2.422.274 4.877.714 7.262.773 4.16 1.168 8.33 1.323 12.556.126 3.524.677 7.033.91 10.557.107 1.649-.185 3.32-.13 4.977.108 3.187.197 6.385.559 9.55.248 2.16.018 4.263-.026 6.397-.085 4.178.037 8.356-.055 12.534-.034 1.616-.385 3.228-.662 4.833-.07.392-.392.754-.644 1.098-1.016 1.394-.573 3.02-.713 4.548-.211 2.281-.148 4.596-.451 6.862-.185 1.387-1.135 1.734-2.308 1.002-2.27-1.423-3.952-3.26-4.315-6.123-.266-2.126-.817-4.219-1.246-6.33-.007-.033-.03-.066-.033-.103-.244-2.714-.488-5.432-.728-8.15.044-.007.089-.01.133-.014-.244-2.07-.496-4.138-.725-6.208l-.02-.36.005-.72a4.02 4.02 0 00-.018-.359c-.2-2.111-.429-4.219-.636-6.33-.166-1.664-.288-3.335-.47-4.999-.258-2.377-.57-4.751-.835-7.132a510.397 510.397 0 01-.706-6.718c-.163-1.624-.289-3.254-.452-4.877-.28-2.818-.58-5.632-.865-8.445-.233-2.315-.447-4.633-.684-6.948-.166-1.583-.355-3.165-.536-4.748-.033-.288-.103-.569-.126-.857-.233-3.195-.41-6.39-.71-9.577-.173-1.897-.547-3.771-.802-5.664-.392-2.947-.847-5.894-1.11-8.856-.166-1.867-.191-3.782.012-5.642.251-2.26 1.786-3.594 4.145-3.772 2.459-.188 4.88-.085 6.929 1.646zm-102.014 72.31c.421.905.868 1.811 1.442 2.625 1.893 2.684 2.096 5.52.968 8.537-.54 1.446-.976 2.928-1.545 4.363-.451 1.143-1.102 2.215-1.531 3.365-.451 1.198-.843 2.433-1.094 3.686-.526 2.614-.921 5.25-1.413 7.872-.122.655-.325 1.324-.65 1.897-.23.407-.7.876-1.114.932-.403.051-.95-.304-1.29-.633-.314-.303-.57-.79-.617-1.224-.33-2.817-.592-5.638-.877-8.46.063-3.645.64-7.18 1.439-10.707.288-1.28.085-2.7.502-3.92.707-2.048 1.679-4.015 2.644-5.967.473-.962 1.117-1.864 1.804-2.692.551-.662.962-.47 1.332.325zm213.563 27.103c.447.606.843 1.242 1.294 1.915-.155.174-.325.473-.422.455-.647-.145-1.405-.204-1.863-.596-.344-.288-.484-1.083-.381-1.582.159-.777.895-.843 1.372-.192zM297.43 42.838c.491 1.87 1.53 3.202 3.083 4.3 1.206.858 1.535 2.244 1.372 3.664-.052.425-.499.843-.835 1.19-1.05 1.054-2.319 1.942-3.143 3.144-.636.924-.843 2.203-1.05 3.36-.392 2.134-.684 4.29-.932 6.445-.207 1.75-.388 3.513-.403 5.273-.022 3.324-.033 6.633.558 9.957.484 2.721.902 5.42 2.104 7.913 1.035 2.144 1.856 4.448 3.827 6.012 1.335 1.061 2.222 1.006 2.94-.54.898-1.941 1.597-3.986 2.277-6.016.488-1.453.943-2.943 1.176-4.452.325-2.122.503-4.274.602-6.422.137-3.047.185-6.097.208-9.144.033-5.32.014-10.645.033-15.966.007-1.819.188-3.523 2.303-4.285.592-.21.984-.817 1.069-1.649.107-1.01.736-1.923 1.782-2.237 1.72-.518 3.457-1.017 5.228-1.294.625-.1 1.601.292 1.967.791.318.425.13 1.365-.066 2.004-.281.91-.803 1.738-1.172 2.618-1.202 2.884-1.428 5.897-1.686 9-.54 6.555-.636 13.103-.518 19.655.078 4.589.536 9.17.832 13.759.148 2.296.307 4.588.488 7.269-.203 1.867-.48 4.104-.684 6.348-.21 2.393.107 4.718 1.08 6.937.591 1.35.018 2.233-1.439 2.266-1.782.037-3.006-.872-3.852-2.902-.818-1.941-1.664-3.871-2.389-5.846-.492-1.346-.788-2.765-1.172-4.156-.067-.236-.096-.495-.215-.702-1.039-1.805-1.046-1.805-2.566-.352-2.026 1.934-4.496 2.748-7.24 2.873-1.84.085-3.734.189-5.105-1.312-1.254-1.372-2.57-2.773-3.44-4.39-1.223-2.277-2.158-4.724-3.02-7.168-.71-2.02-1.124-4.142-1.697-6.205-.325-1.18-.788-2.318-1.043-3.509-.196-.906-.214-1.856-.225-2.791-.041-3.24-.082-6.478-.041-9.714.033-2.266-.011-4.566.377-6.777.51-2.85 1.45-5.628 2.145-8.449.31-1.26.591-2.544.691-3.83.152-2.064 1.394-3.413 2.777-4.7.573-.536 1.187-1.109 1.893-1.412 1.327-.566 2.758.066 3.12 1.442zM156.915 70.394c1.032.31 2.152.329 3.184.64 2.144.643 4.045 1.722 5.435 3.549.85 1.113.632 1.527-.666 1.978l-.217.073-.439.143c-1.024.33-2.047.686-2.738 1.721-.684 1.032-1.538 1.028-2.662-.044-1.076-1.028-3.66-.802-4.574.473-.566.792-1.08 1.623-1.59 2.455-1.741 2.844-2.729 5.957-3.538 9.181-.58 2.307-1.187 4.592-.995 6.966.16 1.923.47 3.83 1.705 5.487 1.316 1.76 3.176 2.6 5.135 3.18 2.966.884 5.994 1.542 8.989 2.315.414.107.836.266 1.19.503.725.48.625 1.538-.188 1.841-.599.226-1.246.407-1.882.455-1.642.125-3.294.17-5.45.27-3.08-.43-6.789-.503-10.017-2.308-2.691-1.497-4.799-3.686-6.193-6.548-1.69-3.468-1.97-7.143-1.686-10.86.144-1.833 1.047-3.6 1.257-5.442.26-2.248 1.48-4.015 2.37-5.964.744-1.634 1.35-3.328 2.082-4.966.425-.957.91-1.904 1.501-2.762.204-.29.512-.511.836-.717l.39-.243c.065-.04.128-.081.19-.123 2.655-1.778 5.498-2.178 8.571-1.253zm-62.67 8.737c-.906.5-2.079.558-3.147.703-.843.114-1.671.81-1.749 1.67-.222 2.356-.566 4.708-.64 7.063-.133 4.226-.295 8.467-.081 12.682.133 2.596-.654 5.343.984 7.931.414-.092 1.005-.081 1.423-.343 2.958-1.879 5.916-3.757 8.8-5.746 2.255-1.557 3.487-3.857 3.66-6.545.226-3.516-.014-7.01-1.024-10.453-.55-1.882-1.198-3.686-2.34-5.25-1.446-1.978-2.485-3.59-5.887-1.712zm170.304-31.135c1.157.096 2.326.037 3.49-.008.666-.026 1.135.048 1.017.888-.018.137.07.318.155.44 1.147 1.6 1.11 3.516 1.46 5.335.12.58.297 1.305.703 1.65 1.313 1.097 1.638 2.665 2.16 4.126.517 1.449.894 2.95 1.242 4.448.322 1.401.51 2.832.78 4.244.37 1.945.762 3.886 1.15 5.828.019.103.133.192.144.292.237 2.31.573 4.622.673 6.936.163 3.757.207 7.513.233 11.27.008 1.756.004 3.535-.248 5.269-.277 1.886-1.408 3.387-2.858 4.61-2.181 1.838-4.61 3.217-7.472 3.595-.98.129-2.045.007-3.01-.233-2.562-.636-4.84-1.816-6.615-3.85-1.723-1.974-2.936-4.203-3.768-6.7-.632-1.881-1.682-3.623-2.336-5.497-.666-1.92-1.154-3.912-1.583-5.898-.329-1.508-.444-3.065-.654-4.6.188-3.6.617-7.102 1.882-10.482 1.176-3.146 2.056-6.43 3.475-9.458 1.694-3.609 3.195-7.354 5.876-10.453 1.157-1.334 2.392-1.893 4.104-1.752zm96.936-.843c.706.792 1.62 1.424 1.401 2.689-.325 1.933-.873 3.704-2.725 4.791-1.804 1.062-3.553 2.226-5.35 3.299-1.32.787-2.36 3.18-2.041 4.67.754 3.545 2.496 6.636 4.344 9.694 2.004 3.313 3.857 6.693 4.977 10.45 1.113 3.719.366 7.206-.965 10.678-.599 1.556-1.453 3.002-.95 4.865.328 1.237-.482 1.974-1.35 2.659l-.262.204c-.13.102-.26.203-.385.306-1.227 1.013-2.33 2.17-3.553 3.184-.536.44-1.206.813-1.875.968-1.028.24-2.16.063-2.895 1.136-.14.207-.872.288-1.08.118-1.042-.832-2.233-.82-3.438-.77-.854.034-1.261-.265-1.313-1.19-.107-1.786-.492-1.974-2.34-2.174-1.63-.177-3.413-.347-4.367-1.963-1.53-2.6-1.335-4.212 1.154-6.467 1.471-1.339 3.083-2.537 5.043-3.11.854-.251 1.727-.503 2.603-.599 1.923-.21 3.856-.262 5.775-.484 1.827-.21 3.025-2.448 2.149-4.437-.806-1.82-1.967-3.501-3.114-5.143-2.473-3.528-5.032-7.003-7.58-10.475-.69-.936-1.371-1.934-2.251-2.662-2.037-1.675-2.633-3.894-2.829-6.36-.137-1.69-.406-3.368-.62-5.084-.996.425-1.14-.44-1.1-.99.097-1.302-.055-2.715 1.21-3.691.362-.277.521-.82.754-1.25.326-.591.692-.869 1.413-.506.358.18.972.262 1.272.07 2.23-1.401 4.448-2.836 6.6-4.356 1.371-.972 2.932-1.183 4.496-1.408 3.642-.522 6.722.562 9.192 3.338zm34.476 1.6c.237.822.514 1.683.998 2.367 1.331 1.878 1.827 3.927 1.572 6.193.1.011.196.023.3.03-.452 2.788-1.047 5.56-1.288 8.367-.147 1.75-.661 3.32-1.438 4.8-1.434 2.736-3.165 5.254-5.82 7.032-1.712 1.15-3.239 2.577-4.954 3.724-1.368.913-2.884 1.608-4.356 2.366-.695.359-.81.85-.85 1.623-.181 3.413 1.19 6.238 3.475 8.52 1.176 1.168 2.895 1.855 4.456 2.558 1.849.832 3.8 1.53 5.879 1.305 1.28-.137 2.544-.488 3.797-.799.714-.177 1.46-.876 2.03.148.518.943.144 2.63-.67 3.088-1.981 1.12-4.163 1.401-6.348 1.039-.85-.145-1.42.044-1.97.491-1.228.991-2.54.888-3.905.414-.37-.129-.743-.273-1.12-.358-.58-.133-.943.004-1.42.521-.958 1.04-2.337 1.572-3.731 1.627-.65.022-1.364-.55-1.978-.965-2.211-1.483-4.263-3.187-5.654-5.472-1.25-2.049-2.38-4.193-3.309-6.408-1.242-2.965-1.86-6.1-1.671-9.347.225-4.012 1.102-7.876 2.706-11.555 1.879-4.296 4.297-8.282 7.137-12.002.765-1.002 1.782-1.811 2.662-2.725 1.741-1.819 3.42-3.705 5.232-5.45.776-.747 1.763-1.335 2.75-1.778 1.306-.588 2.689-1.032 4.072-1.416 1.8-.503 2.902.244 3.416 2.063zM283.386 75.03l.51.03c.174.661.463 1.316.503 1.989.189 3.33.06 6.71.537 9.997.495 3.443 1.508 6.815 3.438 9.82.743 1.166 1.387 2.4 2.074 3.602l-.218.196c-.528-.51-1.08-.998-1.575-1.538-2.588-2.825-4.004-6.19-4.965-9.894-1.047-4.034-1.106-8.083-1.01-12.169.008-.38.15-.756.316-1.132l.204-.45c.068-.15.132-.3.186-.451zm-17.273-11.423c-.677.448-1.35.973-1.841 1.609-.688.895-1.265 1.886-1.801 2.884-.57 1.068-1.12 2.16-1.516 3.298-.407 1.183-.647 2.426-.899 3.653l-.154.74-.323 1.483c-.266 1.236-.51 2.475-.617 3.723-.355 4.226.48 8.282 2.67 11.924 1.286 2.14 3.239 3.742 5.786 4.197 1.864.332 3.376.225 3.9-2.544.385-1.993.456-4.045.663-6.016-.296-3.435-.448-6.792-.914-10.113-.388-2.769-1.153-5.487-1.73-8.234-.455-2.181-1.035-4.318-2.226-6.226-.155-.252-.813-.496-.998-.378zM25.3 18.032a11.385 11.385 0 00-5.957 1.786c-.791.503-1.675 1.294-1.915 2.126-.381 1.301-.392 2.758-.304 4.134.163 2.621.522 5.228.77 7.842.151 1.545.2 3.102.388 4.644.3 2.418.684 4.829 1.02 7.24.266 1.889.529 3.778.773 5.668.274 2.107.64 4.215.75 6.334.075 1.41.075 2.825.06 4.239l-.023 2.121c-.004.354-.006.707-.007 1.06-.003.33-.022.662-.055.988-.2 1.856-.48 3.708-.57 5.568-.033.702.381 1.423.592 2.133.155.015.31.03.466.048 1.061-1.275 2.348-2.421 3.135-3.841 1.886-3.413 3.724-6.878 5.229-10.471 1.209-2.9 1.974-5.994 2.802-9.037.732-2.707 1.42-5.44 1.867-8.205.366-2.259.415-4.58.477-6.88.045-1.716-.159-3.436-.166-5.151-.007-3.45-.425-6.793-2.296-9.788-.658-1.057-1.46-2.085-2.762-2.292-1.405-.218-2.85-.288-4.274-.266zM391.524 62.76c-.913.75-1.849 1.397-2.647 2.189-2.193 2.174-4.075 4.588-5.27 7.472-.121.296-.121.788.052 1.017.126.17.707.196.943.056 1.657-1.003 3.428-1.886 4.87-3.147 1.838-1.605 3.21-4.884 2.052-7.587zm-256.313-6.467c-.033 1.08.314 1.875.961 2.777.925 1.29 1.472 2.854 2.115 4.33.096.222-.055.702-.255.869-.658.543-.913 1.183-.813 2.019.118.95-.58 1.201-1.161.857a37.345 37.345 0 01-4.445-3.065c-.45-.362-.536-1.183-.728-1.645.543-2.245.643-4.356 1.923-6.097.251-.344.584-.662.95-.87.835-.48 1.479-.132 1.453.825zm198.9-4.416c1.328 1.113 1.325 2.307.992 3.527-.056.207-.547.303-1.043.55.063-1.474-.95-2.717.052-4.077z" fill="#1A1919" fill-rule="evenodd"/></svg>